<svg width="20" height="31" viewBox="0 0 20 31" fill="none" xmlns="http://www.w3.org/2000/svg">
<path fill-rule="evenodd" clip-rule="evenodd" d="M12.7495 6.42341C11.6134 7.35991 11.3109 9.0497 11.8421 11.4928C11.7167 10.0654 12.3216 8.92521 13.6569 8.07231C14.545 7.27188 14.8479 5.73951 14.5658 3.47519C14.3288 4.82792 13.7234 5.81287 12.7495 6.43009V6.42341ZM5.98403 28.4645C4.81871 27.2743 4.14863 25.712 4.10169 24.0756C4.05474 22.4393 4.63422 20.8436 5.72952 19.5931C6.81123 18.4369 6.99566 17.1714 6.28282 15.7964C7.34701 16.3647 7.8648 17.7704 7.83622 20.0133C9.5782 16.5377 9.50765 13.6326 7.62458 11.298C8.3571 11.4847 9.07534 11.7201 9.77416 12.0024C9.5473 10.7288 9.08022 9.64691 8.37292 8.75666C6.96938 6.10724 7.05468 3.18837 8.62883 0C7.95656 2.06599 8.29684 4.02705 9.64966 5.88315C10.9665 7.76593 11.2778 9.92662 10.5834 12.3653C14.7885 14.4312 16.0486 18.1252 14.3638 23.4472C15.7111 22.5578 16.2058 20.9837 15.848 18.7247C17.6601 22.0233 17.8058 24.7167 16.2851 26.805C17.4298 25.4698 18.0715 23.7999 18.1055 22.0678C18.159 19.7981 17.6951 17.9923 16.714 16.6502C15.3501 15.0494 14.5367 13.7086 14.2739 12.6281C13.6782 8.66328 14.6243 5.82665 17.1123 4.11818C14.8991 6.6084 15.0375 9.93284 17.5273 14.0915C17.1179 11.7569 17.7099 10.3259 19.3034 9.79855C17.6988 10.4327 17.8538 13.5783 19.7682 19.2356C20.2949 21.5597 19.917 23.9895 18.7066 26.0624C17.4962 28.1354 15.5378 29.7067 13.204 30.4773C10.8702 31.2479 8.32414 31.164 6.05034 30.2416C3.77655 29.3192 1.93382 27.6227 0.872911 25.4749C-0.615472 22.0687 -0.200496 17.9642 2.11784 13.1617C3.65787 10.6403 4.45231 7.6761 4.50119 4.26894C4.23468 2.61918 3.67354 1.29491 2.81777 0.296154C5.48745 2.53557 6.91405 4.98623 7.09756 7.64809C7.28845 10.0627 6.65492 12.2061 5.19697 14.0782C3.21707 16.732 2.25247 19.7968 2.30319 23.2724C2.50202 24.3385 2.93285 25.3518 3.56731 26.2456C4.20177 27.1394 5.02544 27.8934 5.98403 28.4579V28.4645ZM12.4563 29.2649C14.3846 27.6587 14.5086 25.6381 12.8284 23.203C11.4525 21.3007 10.9513 19.5616 11.3248 17.9856C8.87919 19.257 8.94143 23.1203 9.61093 26.202C8.9027 25.679 7.62596 23.1083 7.67438 21.8637C5.72952 24.8368 5.8826 27.3306 8.13362 29.345C9.5535 29.7007 11.0475 29.673 12.4521 29.2649H12.4563Z" fill="#2194FF"/>
</svg>
