<svg width="74" height="74" viewBox="0 0 74 74" fill="none" xmlns="http://www.w3.org/2000/svg">
<path d="M37 0C51.3522 0 63.0156 11.6637 63.0156 26.0156C63.0156 30.8719 61.6712 35.5982 59.1131 39.674L38.7636 72.976C38.4164 73.5397 37.8961 73.8867 37.2889 73.9734C36.4654 74.1033 35.5544 73.7566 35.0776 72.9328L14.6698 39.327C12.2419 35.338 10.9844 30.6986 10.9844 26.0156C10.9844 11.6637 22.6478 0 37 0ZM37 39.0234C44.2841 39.0234 50.0078 33.1266 50.0078 26.0156C50.0078 18.8612 44.1544 13.0078 37 13.0078C29.8456 13.0078 23.9922 18.8612 23.9922 26.0156C23.9922 33.0832 29.6291 39.0234 37 39.0234Z" fill="#0079C2"/>
<path d="M37 0V13.0078C29.8456 13.0078 23.9922 18.8612 23.9922 26.0156C23.9922 33.0832 29.6291 39.0234 37 39.0234V73.9987C36.2601 74.0159 35.4993 73.6612 35.0777 72.9328L14.6699 39.327C12.2419 35.338 10.9844 30.6986 10.9844 26.0156C10.9844 11.6637 22.6478 0 37 0Z" fill="#2194FF"/>
</svg>
