<svg width="16" height="16" viewBox="0 0 16 16" fill="none" xmlns="http://www.w3.org/2000/svg">
<g clip-path="url(#clip0_12_715)">
<path d="M6.87698 0.96169C6.86635 1.02716 6.86145 1.09341 6.86231 1.1597L6.86231 12.4474L6.74783 12.2013C6.63396 11.9607 6.47898 11.7418 6.28991 11.5544L3.12456 8.3891C2.72661 7.97221 2.08642 7.90217 1.60772 8.2231C1.0976 8.59663 0.986845 9.31294 1.36037 9.82309C1.39056 9.8643 1.42348 9.90348 1.45889 9.94029L7.18285 15.6642C7.62968 16.1116 8.35451 16.112 8.80184 15.6651C8.80212 15.6649 8.80244 15.6645 8.80273 15.6642L14.5267 9.94029C14.9731 9.4926 14.9721 8.76777 14.5244 8.3213C14.4892 8.28617 14.4517 8.25337 14.4122 8.2231C13.9335 7.90217 13.2933 7.97221 12.8954 8.3891L9.72429 11.5487C9.55615 11.7167 9.41516 11.9098 9.30644 12.1211L9.15189 12.4646L9.15189 1.2227C9.17361 0.637892 8.7651 0.124811 8.19027 0.0149466C7.56618 -0.0862601 6.97822 0.337599 6.87698 0.96169Z" fill="white"/>
</g>
<defs>
<clipPath id="clip0_12_715">
<rect width="16" height="16" fill="white" transform="translate(0 16) rotate(-90)"/>
</clipPath>
</defs>
</svg>
