<svg width="16" height="16" viewBox="0 0 16 16" fill="none" xmlns="http://www.w3.org/2000/svg">
<g clip-path="url(#clip0_12_730)">
<path d="M6.87698 15.0383C6.86635 14.9728 6.86145 14.9066 6.86231 14.8403L6.86231 3.55262L6.74783 3.79875C6.63396 4.03933 6.47898 4.2582 6.28991 4.44556L3.12456 7.6109C2.72661 8.02779 2.08642 8.09783 1.60772 7.7769C1.0976 7.40337 0.986845 6.68706 1.36037 6.17691C1.39056 6.1357 1.42348 6.09652 1.45889 6.05971L7.18285 0.335755C7.62968 -0.111572 8.35451 -0.111965 8.80184 0.334861C8.80212 0.335147 8.80244 0.335469 8.80273 0.335755L14.5267 6.05971C14.9731 6.5074 14.9721 7.23223 14.5244 7.6787C14.4892 7.71383 14.4517 7.74663 14.4122 7.7769C13.9335 8.09783 13.2933 8.02779 12.8954 7.6109L9.72429 4.45128C9.55615 4.28332 9.41516 4.09021 9.30644 3.87888L9.15189 3.53545L9.15189 14.7773C9.17361 15.3621 8.7651 15.8752 8.19027 15.9851C7.56618 16.0863 6.97822 15.6624 6.87698 15.0383Z" fill="#2194FF"/>
</g>
<defs>
<clipPath id="clip0_12_730">
<rect width="16" height="16" fill="white" transform="matrix(-4.37114e-08 1 1 4.37114e-08 0 0)"/>
</clipPath>
</defs>
</svg>
